<mxfile host="app.diagrams.net" modified="2024-03-08T03:28:49.231Z" agent="Mozilla/5.0 (Windows NT 10.0; Win64; x64; rv:123.0) Gecko/20100101 Firefox/123.0" etag="xh4dqA0199MexHSyeFnE" version="24.0.2" type="device">
  <diagram name="Page-1" id="F8z8_znI0UpoSTpVb2e5">
    <mxGraphModel dx="1221" dy="731" grid="1" gridSize="10" guides="1" tooltips="1" connect="1" arrows="1" fold="1" page="1" pageScale="1" pageWidth="850" pageHeight="1100" math="0" shadow="0">
      <root>
        <mxCell id="0" />
        <mxCell id="1" parent="0" />
        <mxCell id="H7paPSdoqYeRhIioTYxg-11" style="edgeStyle=orthogonalEdgeStyle;rounded=0;orthogonalLoop=1;jettySize=auto;html=1;exitX=0.5;exitY=1;exitDx=0;exitDy=0;entryX=0.5;entryY=0;entryDx=0;entryDy=0;" edge="1" parent="1" source="H7paPSdoqYeRhIioTYxg-1" target="H7paPSdoqYeRhIioTYxg-3">
          <mxGeometry relative="1" as="geometry" />
        </mxCell>
        <mxCell id="H7paPSdoqYeRhIioTYxg-1" value="Welcome to Treasure Island. Your mission is to find the treasur" style="rounded=1;whiteSpace=wrap;html=1;" vertex="1" parent="1">
          <mxGeometry x="365" y="10" width="120" height="60" as="geometry" />
        </mxCell>
        <mxCell id="H7paPSdoqYeRhIioTYxg-12" style="edgeStyle=orthogonalEdgeStyle;rounded=0;orthogonalLoop=1;jettySize=auto;html=1;exitX=1;exitY=0.5;exitDx=0;exitDy=0;entryX=0;entryY=0.5;entryDx=0;entryDy=0;" edge="1" parent="1" source="H7paPSdoqYeRhIioTYxg-3" target="H7paPSdoqYeRhIioTYxg-7">
          <mxGeometry relative="1" as="geometry" />
        </mxCell>
        <mxCell id="H7paPSdoqYeRhIioTYxg-22" style="edgeStyle=orthogonalEdgeStyle;rounded=0;orthogonalLoop=1;jettySize=auto;html=1;exitX=0.5;exitY=1;exitDx=0;exitDy=0;entryX=0.5;entryY=0;entryDx=0;entryDy=0;" edge="1" parent="1" source="H7paPSdoqYeRhIioTYxg-3" target="H7paPSdoqYeRhIioTYxg-4">
          <mxGeometry relative="1" as="geometry" />
        </mxCell>
        <mxCell id="H7paPSdoqYeRhIioTYxg-3" value="&lt;div&gt;Left or Right&lt;/div&gt;" style="rhombus;whiteSpace=wrap;html=1;" vertex="1" parent="1">
          <mxGeometry x="345" y="120" width="160" height="80" as="geometry" />
        </mxCell>
        <mxCell id="H7paPSdoqYeRhIioTYxg-23" style="edgeStyle=orthogonalEdgeStyle;rounded=0;orthogonalLoop=1;jettySize=auto;html=1;exitX=0.5;exitY=1;exitDx=0;exitDy=0;" edge="1" parent="1" source="H7paPSdoqYeRhIioTYxg-4" target="H7paPSdoqYeRhIioTYxg-5">
          <mxGeometry relative="1" as="geometry" />
        </mxCell>
        <mxCell id="H7paPSdoqYeRhIioTYxg-4" value="Swim or Wait" style="rhombus;whiteSpace=wrap;html=1;" vertex="1" parent="1">
          <mxGeometry x="345" y="240" width="160" height="80" as="geometry" />
        </mxCell>
        <mxCell id="H7paPSdoqYeRhIioTYxg-14" style="edgeStyle=orthogonalEdgeStyle;rounded=0;orthogonalLoop=1;jettySize=auto;html=1;exitX=1;exitY=0.5;exitDx=0;exitDy=0;entryX=0;entryY=0.5;entryDx=0;entryDy=0;" edge="1" parent="1" source="H7paPSdoqYeRhIioTYxg-5" target="H7paPSdoqYeRhIioTYxg-10">
          <mxGeometry relative="1" as="geometry" />
        </mxCell>
        <mxCell id="H7paPSdoqYeRhIioTYxg-15" style="edgeStyle=orthogonalEdgeStyle;rounded=0;orthogonalLoop=1;jettySize=auto;html=1;exitX=0.5;exitY=1;exitDx=0;exitDy=0;entryX=0.5;entryY=0;entryDx=0;entryDy=0;" edge="1" parent="1" source="H7paPSdoqYeRhIioTYxg-5" target="H7paPSdoqYeRhIioTYxg-6">
          <mxGeometry relative="1" as="geometry" />
        </mxCell>
        <mxCell id="H7paPSdoqYeRhIioTYxg-16" style="edgeStyle=orthogonalEdgeStyle;rounded=0;orthogonalLoop=1;jettySize=auto;html=1;exitX=0;exitY=0.5;exitDx=0;exitDy=0;entryX=1;entryY=0.5;entryDx=0;entryDy=0;" edge="1" parent="1" source="H7paPSdoqYeRhIioTYxg-5" target="H7paPSdoqYeRhIioTYxg-8">
          <mxGeometry relative="1" as="geometry" />
        </mxCell>
        <mxCell id="H7paPSdoqYeRhIioTYxg-5" value="&lt;div&gt;Which Door&lt;/div&gt;" style="rhombus;whiteSpace=wrap;html=1;" vertex="1" parent="1">
          <mxGeometry x="345" y="360" width="160" height="80" as="geometry" />
        </mxCell>
        <mxCell id="H7paPSdoqYeRhIioTYxg-6" value="You Win" style="rounded=1;whiteSpace=wrap;html=1;" vertex="1" parent="1">
          <mxGeometry x="365" y="490" width="120" height="60" as="geometry" />
        </mxCell>
        <mxCell id="H7paPSdoqYeRhIioTYxg-7" value="Game Over" style="rounded=1;whiteSpace=wrap;html=1;" vertex="1" parent="1">
          <mxGeometry x="600" y="130" width="120" height="60" as="geometry" />
        </mxCell>
        <mxCell id="H7paPSdoqYeRhIioTYxg-8" value="Game Over" style="rounded=1;whiteSpace=wrap;html=1;" vertex="1" parent="1">
          <mxGeometry x="150" y="370" width="120" height="60" as="geometry" />
        </mxCell>
        <mxCell id="H7paPSdoqYeRhIioTYxg-9" value="Game Over" style="rounded=1;whiteSpace=wrap;html=1;" vertex="1" parent="1">
          <mxGeometry x="600" y="250" width="120" height="60" as="geometry" />
        </mxCell>
        <mxCell id="H7paPSdoqYeRhIioTYxg-10" value="Game Over" style="rounded=1;whiteSpace=wrap;html=1;" vertex="1" parent="1">
          <mxGeometry x="600" y="370" width="120" height="60" as="geometry" />
        </mxCell>
        <mxCell id="H7paPSdoqYeRhIioTYxg-13" style="edgeStyle=orthogonalEdgeStyle;rounded=0;orthogonalLoop=1;jettySize=auto;html=1;exitX=1;exitY=0.5;exitDx=0;exitDy=0;entryX=0;entryY=0.5;entryDx=0;entryDy=0;" edge="1" parent="1" source="H7paPSdoqYeRhIioTYxg-4" target="H7paPSdoqYeRhIioTYxg-9">
          <mxGeometry relative="1" as="geometry">
            <mxPoint x="580" y="280" as="targetPoint" />
          </mxGeometry>
        </mxCell>
        <mxCell id="H7paPSdoqYeRhIioTYxg-17" value="Right" style="text;html=1;align=center;verticalAlign=middle;whiteSpace=wrap;rounded=0;" vertex="1" parent="1">
          <mxGeometry x="510" y="120" width="60" height="30" as="geometry" />
        </mxCell>
        <mxCell id="H7paPSdoqYeRhIioTYxg-18" value="Swim" style="text;html=1;align=center;verticalAlign=middle;whiteSpace=wrap;rounded=0;" vertex="1" parent="1">
          <mxGeometry x="510" y="240" width="60" height="30" as="geometry" />
        </mxCell>
        <mxCell id="H7paPSdoqYeRhIioTYxg-19" value="Blue" style="text;html=1;align=center;verticalAlign=middle;whiteSpace=wrap;rounded=0;" vertex="1" parent="1">
          <mxGeometry x="510" y="360" width="60" height="30" as="geometry" />
        </mxCell>
        <mxCell id="H7paPSdoqYeRhIioTYxg-20" value="Red" style="text;html=1;align=center;verticalAlign=middle;whiteSpace=wrap;rounded=0;" vertex="1" parent="1">
          <mxGeometry x="285" y="360" width="60" height="30" as="geometry" />
        </mxCell>
        <mxCell id="H7paPSdoqYeRhIioTYxg-21" value="Yellow" style="text;html=1;align=center;verticalAlign=middle;whiteSpace=wrap;rounded=0;" vertex="1" parent="1">
          <mxGeometry x="440" y="450" width="60" height="30" as="geometry" />
        </mxCell>
      </root>
    </mxGraphModel>
  </diagram>
</mxfile>
